# xmcd
#
# Track frame offsets:
#	150
#	38385
#	56459
#	75993
#	108810
#	145812
#	187871
#	205451
#	225134
#	242514
#
# Disc length: 3643 seconds
# Revision: 0
# Processed by: cddbd v1.5.2PL0 Copyright (c) Steve Scherf et al.
# Submitted via: dBpowerAMP V12.0
#
DISCID=670e390a
DTITLE=Liz Melendez - Live
DYEAR=2009
DGENRE=Blues
TTITLE0=Lenny
TTITLE1=Sacrifice
TTITLE2=Similar Circumstance
TTITLE3=Mercy
TTITLE4=Milagro
TTITLE5=Tin Pan Alley
TTITLE6=Keep My Head On
TTITLE7=Drink Your Wine
TTITLE8=Chitlins Con Carne
TTITLE9=3rd Degree
EXTD=
EXTT0=
EXTT1=
EXTT2=
EXTT3=
EXTT4=
EXTT5=
EXTT6=
EXTT7=
EXTT8=
EXTT9=
PLAYORDER=
